<?xml version="1.0" encoding="utf-8"?>
<!-- Generator: Adobe Illustrator 24.1.2, SVG Export Plug-In . SVG Version: 6.00 Build 0)  -->
<svg version="1.1" id="Ebene_1" xmlns="http://www.w3.org/2000/svg" xmlns:xlink="http://www.w3.org/1999/xlink" x="0px" y="0px"
	 viewBox="0 0 400 400" style="enable-background:new 0 0 400 400;" xml:space="preserve">
<style type="text/css">
	.st0{fill:#009EE2;}
	.st1{fill:#FFFFFF;}
</style>
<rect x="-0.1" class="st0" width="400.3" height="400.3"/>
<path class="st1" d="M31.2,87c4.5,2.1,12.7,4.1,17.8,4.1c4,0,6.3-0.9,6.8-3.5c0.5-2.5-3.7-3.8-8.6-5l-4.1-1.2
	c-12.7-3.2-12.7-11.6-12.7-12.9c0-7.9,7.8-13.7,21.4-13.7c5,0,12.4,1.4,16,3.2v9.4c-7.6-2.3-12.4-2.9-16.1-2.9c-5,0-7.2,1.8-7.2,3.9
	c0,0-0.1,2.1,2.9,2.9l2.6,0.7c11.6,3.1,20.6,5.9,19.8,15.6c-1,10.2-9.3,13.1-20.9,13.1c-6,0-13.2-1.6-17.8-3.7V87z"/>
<path class="st1" d="M98.9,54.8c6.8,0,13.9,0.8,17.7,1.8V66c-9.5-1.2-11.3-1-14.3-1c-9.7,0-15.2,4.9-15.3,12.7
	c0.1,7.8,5.6,12.8,15.3,12.8c2.9,0,4.8,0.2,14.3-1V99c-3.8,1-10.9,1.8-17.7,1.8c-12.7,0-25.9-8.2-25.9-22.9
	C73,63.2,86.2,54.8,98.9,54.8"/>
<polygon class="st1" points="123.1,100.1 123.1,55.5 137.2,55.5 137.2,72.2 152,72.2 152,55.5 166.1,55.5 166.1,100.1 152,100.1 
	152,81.7 137.2,81.7 137.2,100.1 "/>
<rect x="176.1" y="55.5" class="st1" width="14" height="44.6"/>
<path class="st1" d="M213.7,87.8c0,1.4,0.5,2.5,2.5,2.5h20.7v9.8h-23.4c-9.4-0.3-13.7-2.6-13.8-10.2V55.5h37.2v9.8h-23.2v7.1h21.1
	V82h-21.1V87.8z"/>
<path class="st1" d="M267.6,90.5h-8.3v-8.4h8.3c1.8,0,4.1,1.1,4.1,4.3C271.6,89,269.9,90.5,267.6,90.5 M259.2,65.2h6.3
	c2.4,0,4,1.7,4,4.1c0,2.3-1.2,4.3-4,4.3h-6.3V65.2z M277.1,76.8c5.1-1.2,6.5-5.8,6.5-8.1c0-10.7-10.2-13.1-15.2-13.1h-23.3v44.6
	h22.5c10.9,0,18.3-4,18.3-13.5C285.9,82.2,282.7,77.5,277.1,76.8"/>
<path class="st1" d="M305.5,87.8c0,1.4,0.5,2.5,2.5,2.5h20.7v9.8h-23.4c-9.4-0.3-13.7-2.6-13.8-10.2V55.5h37.2v9.8h-23.2v7.1h21.1
	V82h-21.1V87.8z"/>
<path class="st1" d="M350.6,87.6c0,1.4,0.4,2.7,2.6,2.7h17.5v9.8h-20.3c-9.4-0.3-13.6-2.6-13.8-10.2V55.5h14V87.6z"/>
</svg>
