<?xml version="1.0" encoding="utf-8"?>
<!-- Generator: Adobe Illustrator 24.1.2, SVG Export Plug-In . SVG Version: 6.00 Build 0)  -->
<svg version="1.1" id="Ebene_1" xmlns="http://www.w3.org/2000/svg" xmlns:xlink="http://www.w3.org/1999/xlink" x="0px" y="0px"
	 viewBox="0 0 218 209" style="enable-background:new 0 0 218 209;" xml:space="preserve">
<style type="text/css">
	.st0{fill:#009FE3;}
</style>
<g>
	<path class="st0" d="M0,0v18.2h9.1v137.9L7,158l-0.4,0.6C2.3,164.1,0,170.8,0,177.7v9.1h1.8c4,12.7,15.5,22.1,29.4,22.1h114.1h5.1
		h49.4c10,0,18.2-8.1,18.2-18.2V0h-85.3l12.6,37.8v66.9l18.2,17V63.6h36.3v127.2h-21.6c0.6-1.3,1.1-2.6,1.6-4h1.8v-9.1
		c0-6.9-2.3-13.7-6.6-19.2l-0.4-0.6l-56.6-52.9V72.7h9.1V54.5h-9.1H63.6h-9.1v18.2h9.1v32.4l-36.3,34V18.2h36.3v18.2h18.2V18.2h9.1
		V0H0z M157.9,18.2h41.9v27.3h-36.3V34.9L157.9,18.2z M81.8,72.7h18.2V113l2.9,2.7l22.1,20.6h-68L81.8,113V72.7z M37.4,154.4h106.9
		l16.6,15.5c1.7,2.3,2.7,5,2.7,7.8c0,7.3-5.7,13.1-13,13.1h-5.1H31.2c-7.3,0-13.1-5.7-13.1-13.1c0-2.8,1-5.5,2.7-7.8L37.4,154.4z"/>
</g>
</svg>
