<?xml version="1.0" encoding="utf-8"?>
<!-- Generator: Adobe Illustrator 24.1.2, SVG Export Plug-In . SVG Version: 6.00 Build 0)  -->
<svg version="1.1" id="Ebene_1" xmlns="http://www.w3.org/2000/svg" xmlns:xlink="http://www.w3.org/1999/xlink" x="0px" y="0px"
	 viewBox="0 0 223 226" style="enable-background:new 0 0 223 226;" xml:space="preserve">
<style type="text/css">
	.st0{fill:#009FE3;}
</style>
<g>
	<path class="st0" d="M109.8,3.1c-1.5,0.2-2.9,0.6-4.3,1.3L7,55.9c-6.4,3.2-8.9,11.1-5.6,17.4c3.2,6.4,11.1,8.9,17.4,5.6l92.7-48.5
		l92.7,48.5c6.4,3.2,14.2,0.7,17.4-5.6c3.2-6.4,0.7-14.2-5.6-17.4L117.3,4.4C115,3.2,112.4,2.8,109.8,3.1z M59.2,80
		c-0.4,0.1-0.7,0.2-1.1,0.3c-3.2,0.6-5.8,2.9-6.7,6c-0.9,3.1,0,6.5,2.4,8.7c0,0,2.7,2.6,4.3,8c1.5,5.4,2,12.8-5.4,23.8
		c-9.8,14.7-10.2,28.7-7.5,38.3c2.7,9.6,8.6,15.5,8.6,15.5c3.4,3.4,8.9,3.4,12.3,0c3.4-3.4,3.4-8.9,0-12.3c0,0-2.7-2.6-4.3-8
		c-1.5-5.4-2-12.8,5.4-23.8c9.8-14.7,10.2-28.7,7.5-38.3c-2.7-9.6-8.6-15.5-8.6-15.5C64.4,80.8,61.8,79.8,59.2,80z M110.6,80
		c-0.4,0.1-0.7,0.2-1.1,0.3c-3.2,0.6-5.8,2.9-6.7,6c-0.9,3.1,0,6.5,2.4,8.7c0,0,2.7,2.6,4.3,8c1.5,5.4,2,12.8-5.4,23.8
		c-9.8,14.7-10.2,28.7-7.5,38.3c2.7,9.6,8.6,15.5,8.6,15.5c3.4,3.4,8.9,3.4,12.3,0c3.4-3.4,3.4-8.9,0-12.3c0,0-2.7-2.6-4.3-8
		c-1.5-5.4-2-12.8,5.4-23.8c9.8-14.7,10.2-28.7,7.5-38.3c-2.7-9.6-8.6-15.5-8.6-15.5C115.8,80.8,113.3,79.8,110.6,80z M162.1,80
		c-0.4,0.1-0.7,0.2-1.1,0.3c-3.2,0.6-5.8,2.9-6.7,6c-0.9,3.1,0,6.5,2.4,8.7c0,0,2.7,2.6,4.3,8c1.5,5.4,2,12.8-5.4,23.8
		c-9.8,14.7-10.2,28.7-7.5,38.3s8.6,15.5,8.6,15.5c3.4,3.4,8.9,3.4,12.3,0c3.4-3.4,3.4-8.9,0-12.3c0,0-2.7-2.6-4.3-8
		c-1.5-5.4-2-12.8,5.4-23.8c9.8-14.7,10.2-28.7,7.5-38.3c-2.7-9.6-8.6-15.5-8.6-15.5C167.3,80.8,164.7,79.8,162.1,80z M17.2,200.3
		c-4.7,0-8.6,3.9-8.6,8.6v8.6c0,4.7,3.9,8.6,8.6,8.6h188.6c4.7,0,8.6-3.9,8.6-8.6v-8.6c0-4.7-3.9-8.6-8.6-8.6H17.2z"/>
</g>
</svg>
