<?xml version="1.0" encoding="utf-8"?>
<!-- Generator: Adobe Illustrator 24.1.2, SVG Export Plug-In . SVG Version: 6.00 Build 0)  -->
<svg version="1.1" id="Ebene_1" xmlns="http://www.w3.org/2000/svg" xmlns:xlink="http://www.w3.org/1999/xlink" x="0px" y="0px"
	 viewBox="0 0 221 186" style="enable-background:new 0 0 221 186;" xml:space="preserve">
<style type="text/css">
	.st0{fill:#009FE3;}
</style>
<g>
	<path class="st0" d="M46,1.5c-7.6,0-13.8,6.2-13.8,13.8v5.5c-7.9,2.1-13.8,9-13.8,17.5v61.2c-4.7,1.5-8.6,4.1-11.5,7.4
		C2.2,112.2,0,119.1,0,125.8s2.2,13.6,6.9,18.9c2.9,3.3,6.8,5.9,11.5,7.4v24.4H0v9.2h211.8h4.6h4.6V89h-4.9l-4.6-69.1h-22.4
		L184.5,89h-14.1V15.3c0-7.6-6.2-13.8-13.8-13.8h-23h-46h-9.2H46z M46,10.7h32.2v10.1c-7.9,2.1-13.8,9-13.8,17.5v61.2
		c-3.5,1.1-6.6,2.9-9.2,5.1V38.4c0-8.5-6-15.4-13.8-17.5v-5.5C41.4,12.7,43.4,10.7,46,10.7z M87.5,10.7h36.8v9.9
		c-7.9,2.1-13.8,9.2-13.8,17.8v61.2c-3.5,1.1-6.6,2.9-9.2,5.1V38.4c0-8.5-6-15.4-13.8-17.5V10.7z M133.5,10.7h23
		c2.6,0,4.6,2,4.6,4.6V89h-13.8V38.4c0-8.5-5.9-15.7-13.8-17.8V10.7z M36.8,29.2c5.1,0,9.2,4.1,9.2,9.2v23H27.6v-23
		C27.6,33.2,31.7,29.2,36.8,29.2z M82.9,29.2c5.1,0,9.2,4.1,9.2,9.2v23H73.7v-23C73.7,33.2,77.7,29.2,82.9,29.2z M128.9,29.2
		c5.1,0,9.2,4.1,9.2,9.2v23h-18.4v-23C119.7,33.2,123.8,29.2,128.9,29.2z M197.7,29.2h5.2l4.6,69.1h4.3v78.3h-64.5v-50.6V98.2h18.4
		h27.3h4.9V89h-4.3L197.7,29.2z M27.6,70.6H46v34.7c-4.9-4.4-11.3-7.1-18.4-7.1V70.6z M73.7,70.6h18.4v34.7
		c-4.9-4.4-11.3-7.1-18.4-7.1V70.6z M119.7,70.6h18.4v34.7c-4.9-4.4-11.3-7.1-18.4-7.1V70.6z M27.6,107.4c10.2,0,18.4,8.2,18.4,18.4
		s-8.2,18.4-18.4,18.4c-6.5,0-10.8-2.3-13.8-5.6c-3-3.4-4.6-8-4.6-12.8c0-4.7,1.6-9.4,4.6-12.8C16.8,109.7,21.1,107.4,27.6,107.4z
		 M73.7,107.4c10.2,0,18.4,8.2,18.4,18.4s-8.2,18.4-18.4,18.4c-6.5,0-10.8-2.3-13.8-5.6c-3-3.4-4.6-8-4.6-12.8
		c0-4.7,1.6-9.4,4.6-12.8C62.8,109.7,67.1,107.4,73.7,107.4z M119.7,107.4c10.2,0,18.4,8.2,18.4,18.4s-8.2,18.4-18.4,18.4
		c-6.5,0-10.8-2.3-13.8-5.6c-3-3.4-4.6-8-4.6-12.8c0-4.7,1.6-9.4,4.6-12.8C108.9,109.7,113.2,107.4,119.7,107.4z M156.5,112v9.2H175
		V112H156.5z M184.2,112v9.2h18.4V112H184.2z M46,146.4v30.1H27.6v-23C34.7,153.5,41.1,150.8,46,146.4z M92.1,146.4v30.1H73.7v-23
		C80.7,153.5,87.2,150.8,92.1,146.4z M138.1,146.4v30.1h-18.4v-23C126.8,153.5,133.2,150.8,138.1,146.4z M55.3,147
		c2.6,2.2,5.7,4,9.2,5.1v24.4h-9.2V147z M101.3,147c2.6,2.2,5.7,4,9.2,5.1v24.4h-9.2V147z"/>
</g>
</svg>
