<?xml version="1.0" encoding="utf-8"?>
<!-- Generator: Adobe Illustrator 24.1.2, SVG Export Plug-In . SVG Version: 6.00 Build 0)  -->
<svg version="1.1" id="Ebene_1" xmlns="http://www.w3.org/2000/svg" xmlns:xlink="http://www.w3.org/1999/xlink" x="0px" y="0px"
	 viewBox="0 0 228 228" style="enable-background:new 0 0 228 228;" xml:space="preserve">
<style type="text/css">
	.st0{fill:none;}
	.st1{fill:#444B54;}
	.st2{fill:#009FE3;}
</style>
<path class="st0" d="M112.7,53.7V5.5h35.7v48.1 M80.6,94.7V62.6c0-5,3.9-8.9,8.9-8.9h82c5,0,8.9,3.9,8.9,8.9v32.1"/>
<path class="st1" d="M180.4,100c-3,0-5.3-2.3-5.3-5.3V62.6c0-2-1.6-3.6-3.6-3.6h-82c-2,0-3.6,1.6-3.6,3.6v32.1c0,3-2.3,5.3-5.3,5.3
	c-3,0-5.3-2.3-5.3-5.3V62.6c0-7.8,6.4-14.3,14.3-14.3h82c7.8,0,14.3,6.4,14.3,14.3v32.1C185.8,97.7,183.4,100,180.4,100z"/>
<path class="st0" d="M55.6,160.3v-56.7c0-5,3.9-8.9,8.9-8.9h131.9c5,0,8.9,3.9,8.9,8.9V166"/>
<path class="st0" d="M53.8,219.5L36,166l94.5-35.7l89.1,35.7l-17.8,53.5"/>
<path class="st2" d="M130.5,224.8c-3,0-5.3-2.3-5.3-5.3v-89.1c0-3,2.3-5.3,5.3-5.3c3,0,5.3,2.3,5.3,5.3v89.1
	C135.8,222.5,133.5,224.8,130.5,224.8z M94.8,171.3c-1.4,0-2.9-0.5-3.7-1.6c-1.1-0.9-1.6-2.3-1.6-3.7c0-0.4,0-0.7,0.2-1.1
	c0-0.4,0.2-0.7,0.4-1.1c0.2-0.4,0.4-0.5,0.5-0.9c0.2-0.4,0.4-0.5,0.7-0.7c2-2,5.5-2,7.5,0c0.2,0.2,0.5,0.5,0.7,0.7
	c0.2,0.4,0.4,0.5,0.5,0.9c0.2,0.4,0.2,0.7,0.4,1.1c0,0.4,0.2,0.7,0.2,1.1c0,1.4-0.5,2.9-1.6,3.7C97.7,170.8,96.3,171.3,94.8,171.3z"
	/>
<path class="st2" d="M221.6,161l-10.9-4.3v-53.1c0-7.8-6.4-14.3-14.3-14.3h-10.7V62.6c0-7.8-6.4-14.3-14.3-14.3h-17.8V5.5
	c0-3-2.3-5.3-5.3-5.3h-35.7c-3,0-5.3,2.3-5.3,5.3v42.8H89.5c-7.8,0-14.3,6.4-14.3,14.3v26.7H64.5c-7.8,0-14.3,6.4-14.3,14.3v35.7
	c0,3,2.3,5.3,5.3,5.3s5.3-2.3,5.3-5.3v-35.7c0-2,1.6-3.6,3.6-3.6h131.9c2,0,3.6,1.6,3.6,3.6v48.8l-67.6-27.1c-1.2-0.5-2.7-0.5-3.9,0
	L39.4,161c-2.7,1.1-3.9,3.9-3,6.6l9.4,28.5c0.9,2.9,3.9,4.3,6.8,3.4c2.9-0.9,4.3-3.9,3.4-6.8l-8-23.9l77.2-30.7v75.2
	c-3.2-0.9-6.2-2.7-8.7-5c-2-2-5.5-2-7.5,0c-3.7,3.7-8.7,5.9-14.1,5.9c-5.3,0-10.3-2.1-14.1-5.9c-2-2-5.5-2-7.5,0
	c-3.7,3.7-8.7,5.9-14.1,5.9s-10.3-2.1-14.1-5.9c-2.1-2.1-5.5-2.1-7.5,0c-3.7,3.7-8.7,5.9-14.1,5.9c-3,0-5.3,2.3-5.3,5.3
	s2.3,5.3,5.3,5.3c6.4,0,12.7-2,17.8-5.7c5.2,3.7,11.4,5.7,17.8,5.7s12.7-2,17.8-5.7c5.2,3.7,11.4,5.7,17.8,5.7
	c6.4,0,12.7-2,17.8-5.7c5.2,3.7,11.4,5.7,17.8,5.7h71.3l0,0c0.4,0,0.5,0,0.9,0c0,0,0,0,0.2,0s0.5-0.2,0.7-0.2c0.2,0,0.2,0,0.4-0.2
	c0.2,0,0.4-0.2,0.4-0.2c0.2,0,0.2-0.2,0.4-0.2s0.4-0.2,0.4-0.2l0.2-0.2c0.2-0.2,0.4-0.2,0.4-0.4l0.2-0.2c0.2-0.2,0.2-0.4,0.4-0.4
	c0,0,0.2-0.2,0.2-0.4c0.2-0.2,0.2-0.4,0.4-0.4c0.2-0.2,0.2-0.5,0.4-0.7l17.8-53.5C225.5,164.9,224.3,162.1,221.6,161z M118,10.9h25
	v37.4h-25V10.9z M175.1,89.3H85.9V62.6c0-2,1.6-3.6,3.6-3.6h82c2,0,3.6,1.6,3.6,3.6V89.3z M5.7,217.5c-0.4,0-0.7,0-1.1-0.2
	c-0.4,0-0.7-0.2-1.1-0.4s-0.5-0.4-0.9-0.5c-0.4-0.2-0.5-0.4-0.9-0.7c-0.2-0.2-0.5-0.5-0.7-0.9c-0.2-0.4-0.4-0.5-0.5-0.9
	s-0.2-0.7-0.4-1.1c0-0.4-0.2-0.7-0.2-1.1c0-1.4,0.5-2.9,1.6-3.7c0.2-0.2,0.5-0.5,0.9-0.7c0.4-0.2,0.5-0.4,0.9-0.5
	c0.4-0.2,0.7-0.2,1.1-0.4c0.7-0.2,1.4-0.2,2.1,0c0.4,0,0.7,0.2,1.1,0.4s0.7,0.4,0.9,0.5c0.4,0.2,0.5,0.4,0.9,0.7
	c0.2,0.2,0.5,0.5,0.7,0.9c0.2,0.4,0.4,0.5,0.5,0.9c0.2,0.4,0.2,0.7,0.4,1.1c0,0.4,0.2,0.7,0.2,1.1s0,0.7-0.2,1.1
	c0,0.4-0.2,0.7-0.4,1.1c-0.2,0.4-0.4,0.7-0.5,0.9c-0.2,0.4-0.4,0.5-0.7,0.9c-0.2,0.2-0.5,0.5-0.9,0.7c-0.4,0.2-0.5,0.4-0.9,0.5
	c-0.4,0.2-0.7,0.2-1.1,0.4C6.4,217.3,6.1,217.5,5.7,217.5z"/>
</svg>
