<?xml version="1.0" encoding="utf-8"?>
<!-- Generator: Adobe Illustrator 24.1.2, SVG Export Plug-In . SVG Version: 6.00 Build 0)  -->
<svg version="1.1" id="Ebene_1" xmlns="http://www.w3.org/2000/svg" xmlns:xlink="http://www.w3.org/1999/xlink" x="0px" y="0px"
	 viewBox="0 0 221 221" style="enable-background:new 0 0 221 221;" xml:space="preserve">
<style type="text/css">
	.st0{fill:#009FE3;}
</style>
<g>
	<path class="st0" d="M64.1,0c0,0-11.2-0.1-23.9,6.1c-12.8,6.1-27.6,19-35.5,42.7c-17.8,53.5,21.3,87.6,21.3,87.6l1.2,0.9v84.2h9.2
		v-81.9l3.5-5.5l22.2-36.6l57.7,13.6l-12.7,92H82.6v18.5h119.9V203h-1.7l5.5-75.3c6.8-2.5,12.4-8.1,14.1-15.6
		c2.8-11.9-4.6-24-16.4-26.8L73.4,54.2V0H64.1z M54.9,21V62L50,82.5L31,113C23,104.1,11.2,87,22,54.5C28.4,35.4,38.9,27.1,48,22.8
		C51.8,20.9,52.2,21.6,54.9,21z M71.1,72.9l128.6,30.3c2.1,0.5,3.4,2.5,2.9,4.6c-0.5,2.1-2.5,3.4-4.6,2.9L69.3,80.2L71.1,72.9z
		 M137.9,115.3l1.2,0.3l12.7,87.4h-25.9L137.9,115.3z M158.4,120.2l29.7,6.9l-5.8,75.8h-12.1L158.4,120.2z"/>
</g>
</svg>
