<?xml version="1.0" encoding="utf-8"?>
<!-- Generator: Adobe Illustrator 24.1.2, SVG Export Plug-In . SVG Version: 6.00 Build 0)  -->
<svg version="1.1" id="Ebene_1" xmlns="http://www.w3.org/2000/svg" xmlns:xlink="http://www.w3.org/1999/xlink" x="0px" y="0px"
	 viewBox="0 0 259 212" style="enable-background:new 0 0 259 212;" xml:space="preserve">
<style type="text/css">
	.st0{fill:#009FE3;}
</style>
<g>
	<path class="st0" d="M64.7,0C56,0,48.8,7.2,48.8,15.9V22c-9.1,2.4-15.9,10.6-15.9,20.4v70.5c-5.4,1.7-9.9,4.7-13.2,8.5
		c-5.4,6.1-8,13.9-8,21.7c0,7.8,2.6,15.7,8,21.7c3.4,3.8,7.9,6.8,13.2,8.5v28.1H1.1V212h243.8h10.6v-5.3v-5.3h-21.2V100.7h-5.6
		l-5.3-79.5h-25.8l-5.3,79.5h-21.5h-53V15.9c0-8.7-7.2-15.9-15.9-15.9H64.7z M64.7,10.6h37.1c3,0,5.3,2.3,5.3,5.3v84.8H75.3V42.4
		c0-9.8-6.8-18-15.9-20.4v-6.1C59.4,12.9,61.7,10.6,64.7,10.6z M54.1,31.8c5.9,0,10.6,4.7,10.6,10.6v26.5H43.5V42.4
		C43.5,36.5,48.2,31.8,54.1,31.8z M207.4,31.8h6l5.3,79.5h5v90.1H75.3v-58.3v-31.8h95.4h31.5h5.6v-10.6h-4.9L207.4,31.8z M43.5,79.5
		h21.2v40c-5.6-5.1-13.1-8.2-21.2-8.2V79.5z M43.5,121.9c11.8,0,21.2,9.4,21.2,21.2c0,11.8-9.4,21.2-21.2,21.2
		c-7.5,0-12.5-2.6-15.9-6.5s-5.3-9.3-5.3-14.7c0-5.4,1.8-10.8,5.3-14.7C31,124.5,36,121.9,43.5,121.9z M91.2,127.2v10.6h21.2v-10.6
		H91.2z M123,127.2v10.6h21.2v-10.6H123z M160.1,127.2v10.6h21.2v-10.6H160.1z M191.9,127.2v10.6h21.2v-10.6H191.9z M91.2,153.7
		v10.6h21.2v-10.6H91.2z M123,153.7v10.6h21.2v-10.6H123z M160.1,153.7v10.6h21.2v-10.6H160.1z M191.9,153.7v10.6h21.2v-10.6H191.9z
		 M64.7,166.7v34.7H43.5v-26.5C51.6,174.9,59,171.8,64.7,166.7z"/>
</g>
</svg>
