<?xml version="1.0" encoding="utf-8"?>
<!-- Generator: Adobe Illustrator 24.1.2, SVG Export Plug-In . SVG Version: 6.00 Build 0)  -->
<svg version="1.1" id="Ebene_1" xmlns="http://www.w3.org/2000/svg" xmlns:xlink="http://www.w3.org/1999/xlink" x="0px" y="0px"
	 viewBox="0 0 221 162" style="enable-background:new 0 0 221 162;" xml:space="preserve">
<style type="text/css">
	.st0{fill:#009FE3;}
</style>
<g>
	<path class="st0" d="M44.2,0c-4.1-0.1-7.4,3.2-7.5,7.3s3.2,7.4,7.3,7.5c0.1,0,0.1,0,0.2,0v22.1h29.5V14.7c4.1,0.1,7.4-3.2,7.5-7.3
		C81.2,3.4,77.9,0,73.9,0c-0.1,0-0.1,0-0.2,0H44.2z M124,29.4c-3.9,0-7.7,1.6-10.4,4.3L95.8,51.5v88.4l17.8,17.8
		c2.8,2.8,6.5,4.3,10.4,4.3h82.3c8.1,0,14.7-6.6,14.7-14.7V44.2c0-8.1-6.6-14.7-14.7-14.7H124z M140,44.2h58.9
		c4.1,0,7.4,3.3,7.4,7.4v88.4c0,4.1-3.3,7.4-7.4,7.4H140c-4.1,0-7.4-3.3-7.4-7.4c0-4.1,3.3-7.4,7.4-7.4h51.6v-14.7H140
		c-4.1,0-7.4-3.3-7.4-7.4c0-4.1,3.3-7.4,7.4-7.4h51.6V88.4H140c-4.1,0-7.4-3.3-7.4-7.4c0-4.1,3.3-7.4,7.4-7.4h51.6V58.9H140
		c-4.1,0-7.4-3.3-7.4-7.4S135.9,44.2,140,44.2z M44.2,51.5c-8.1,0-14.7,6.6-14.7,14.7v7.4H14.7c0.1-4.1-3.2-7.4-7.3-7.5
		c-0.1,0-0.1,0-0.2,0c-4.1,0.1-7.3,3.4-7.3,7.5v44.2c-0.1,4.1,3.2,7.4,7.3,7.5c4.1,0.1,7.4-3.2,7.5-7.3c0-0.1,0-0.1,0-0.2h14.7v7.4
		c0,8.1,6.6,14.7,14.7,14.7H81V51.5H44.2z"/>
</g>
</svg>
