<?xml version="1.0" encoding="utf-8"?>
<!-- Generator: Adobe Illustrator 24.1.2, SVG Export Plug-In . SVG Version: 6.00 Build 0)  -->
<svg version="1.1" id="Ebene_1" xmlns="http://www.w3.org/2000/svg" xmlns:xlink="http://www.w3.org/1999/xlink" x="0px" y="0px"
	 viewBox="0 0 203 219" style="enable-background:new 0 0 203 219;" xml:space="preserve">
<style type="text/css">
	.st0{fill:#009FE3;}
</style>
<g>
	<path class="st0" d="M101.2,0C68.6,0,39.1,14.5,19.1,37.5V18.3H0.8V73h54.8V54.8H28.7c16.5-22,42.9-36.5,72.5-36.5
		c39.1,0,71.3,24,84.6,58.1l17-6.6C186.9,29,147.8,0,101.2,0z M101.2,56.9l-7.5,10.9c0,0-7,10.2-14.1,22.3c-3.5,6.1-7.1,12.7-9.9,19
		c-2.8,6.3-5,12.1-5,18.6c0,20.1,16.4,36.5,36.5,36.5s36.5-16.4,36.5-36.5c0-6.5-2.3-12.3-5-18.6c-2.8-6.3-6.3-12.9-9.9-19
		c-7.1-12.2-14.1-22.3-14.1-22.3L101.2,56.9z M101.2,90.1c2.3,3.7,2.9,4.2,5.8,9.2c3.3,5.7,6.6,11.9,8.9,17.2
		c2.3,5.3,3.5,10.2,3.5,11.3c0,10.2-8.1,18.3-18.3,18.3C91,146,83,137.9,83,127.8c0-1,1.2-5.9,3.5-11.3s5.6-11.5,8.9-17.2
		C98.3,94.3,98.9,93.7,101.2,90.1z M16.6,142.7l-17,6.6C15.5,190,54.6,219,101.2,219c32.8,0,62.2-14.7,82.1-37.3v19h18.3V146h-54.8
		v18.3h27.1c-16.5,21.8-42.8,36.5-72.7,36.5C62.1,200.8,29.9,176.8,16.6,142.7z"/>
</g>
</svg>
